<svg width="397" height="132" viewBox="0 0 397 132" fill="none" xmlns="http://www.w3.org/2000/svg">
<path d="M321.077 1H16C7.71573 1 1 7.71573 1 16V116C1 124.284 7.71574 131 16 131H379.824C388.108 131 394.824 124.284 394.824 116V60.4714C394.824 51.1042 386.174 43.8218 376.89 42.5797C369.469 41.587 360.886 39.0665 353.484 33.3006C346.278 27.6882 342.055 21.1874 339.581 15.4955C336.277 7.89821 329.361 1 321.077 1Z" fill="#A0D3E8" stroke="#D2D1D1" stroke-width="0.5"/>
<path d="M132.637 1.39877H213.143L164.187 67.9939H244.148L207.159 130.202H122.846L164.187 67.9939H85.8571L132.637 1.39877Z" fill="#C6E3F1" fill-opacity="0.5"/>
</svg>
